
<svg xmlns="http://www.w3.org/2000/svg" viewBox="0 0 186.2 200">
<title>AngularJS logo - Brandlogos.net</title>
<polygon points="93.1 0 93.1 0 93.1 0 0 33.2 14.2 156.3 93.1 200 93.1 200 93.1 200 172 156.3 186.2 33.2 93.1 0" style="fill:#737373"/>
<polygon points="93.1 0 93.1 22.2 93.1 22.1 93.1 123.4 93.1 123.4 93.1 200 93.1 200 172 156.3 186.2 33.2 93.1 0" style="fill:#737373"/>
<path d="M512,434.1,453.8,564.6h21.7l11.7-29.2h49.4l11.7,29.2H570L512,434.1Zm17,83.3H495l17-40.9Z" transform="translate(-418.9 -412)" style="fill:#00"/>
</svg>
