<?xml version="1.0" encoding="utf-8"?><!-- Generator: Adobe Illustrator 27.8.1, SVG Export Plug-In . SVG Version: 6.00 Build 0)  -->
<svg xmlns="http://www.w3.org/2000/svg" xmlns:xlink="http://www.w3.org/1999/xlink" version="1.1" x="0px" y="0px" viewBox="0 0 64 64" width="64" height="64" preserveAspectRatio="xMidYMid meet" enable-background="new 0 0 64 64" xml:space="preserve">
<g id="integration-outline-bot_x5F_s1g1_x5F_s2g1_x5F_s3g1_x5F_s4g1_x5F_background">
	<g id="Layer_5">
	</g>
	
		<path fill="#FFFFFF" stroke="#000000" stroke-width="1" stroke-linecap="round" stroke-linejoin="round" stroke-miterlimit="10" d="   M25.583,27.188c0,1.769,1.439,3.208,3.208,3.208v0.797c0,2.218-1.797,4.015-4.015,4.015h-0.797c0,1.769-1.439,3.208-3.208,3.208   c-1.769,0-3.208-1.439-3.208-3.208h-0.797c-2.218,0-4.015-1.797-4.015-4.015v-8.021c0-2.209,1.797-4.006,4.015-4.006h8.012   c2.218,0,4.015,1.797,4.015,4.006v0.807C27.023,23.979,25.583,25.418,25.583,27.188z"/>
	
		<path fill="#FFFFFF" stroke="#000000" stroke-width="1" stroke-linecap="round" stroke-linejoin="round" stroke-miterlimit="10" d="   M32,43.229c0-1.769-1.439-3.208-3.208-3.208v-0.797c0-2.218,1.797-4.015,4.015-4.015h0.797c0-1.769,1.439-3.208,3.208-3.208   c1.769,0,3.208,1.439,3.208,3.208h0.797c2.218,0,4.015,1.797,4.015,4.015l0,8.021c0,2.209-1.797,4.006-4.015,4.006l-8.012,0   c-2.218,0-4.015-1.797-4.015-4.006v-0.807C30.561,46.438,32,44.998,32,43.229z"/>
</g>
<g id="integration-outline-top_x5F_s1g1_x5F_s2g2_x5F_s3g1_x5F_s4g1_x5F_background_00000010295616402853401810000007962307534687536010_">
	
		<path fill="#FFFFFF" stroke="#536DFE" stroke-width="1" stroke-linecap="round" stroke-linejoin="round" stroke-miterlimit="10" d="   M20.771,38.417c1.769,0,3.208-1.439,3.208-3.208h0.797c2.218,0,4.015,1.797,4.015,4.015v0.797c1.769,0,3.208,1.439,3.208,3.208   c0,1.769-1.439,3.208-3.208,3.208v0.797c0,2.218-1.797,4.015-4.015,4.015h-8.021c-2.209,0-4.006-1.797-4.006-4.015v-8.012   c0-2.218,1.797-4.015,4.006-4.015h0.807C17.562,36.977,19.002,38.417,20.771,38.417z"/>
	
		<path fill="#FFFFFF" stroke="#536DFE" stroke-width="1" stroke-linecap="round" stroke-linejoin="round" stroke-miterlimit="10" d="   M43.229,25.583c-1.769,0-3.208,1.439-3.208,3.208h-0.797c-2.218,0-4.015-1.797-4.015-4.015v-0.797   c-1.769,0-3.208-1.439-3.208-3.208c0-1.769,1.439-3.208,3.208-3.208v-0.797c0-2.218,1.797-4.015,4.015-4.015h8.021   c2.209,0,4.006,1.797,4.006,4.015v8.012c0,2.218-1.797,4.015-4.006,4.015h-0.807C46.438,27.023,44.998,25.583,43.229,25.583z"/>
</g>
</svg>