<svg xmlns="http://www.w3.org/2000/svg" viewBox="0 0 125.34 74.95"><title>Amazon Web Services logo</title><path d="M484.65,501.75a12.61,12.61,0,0,0,.46,3.71,22.31,22.31,0,0,0,1.33,3,1.81,1.81,0,0,1,.29,1,1.65,1.65,0,0,1-.79,1.25l-2.63,1.75a2,2,0,0,1-1.08.38,1.92,1.92,0,0,1-1.25-.58,12.9,12.9,0,0,1-1.5-2c-.42-.71-.83-1.5-1.29-2.46a15.4,15.4,0,0,1-12.26,5.75,11.42,11.42,0,0,1-8.34-3,11.76,11.76,0,0,1,.71-16.59c2.54-2.17,5.92-3.25,10.21-3.25a33,33,0,0,1,4.42.33c1.54.21,3.13.54,4.79.92v-3c0-3.17-.67-5.38-2-6.67s-3.58-1.92-6.79-1.92a19,19,0,0,0-4.5.54,33.22,33.22,0,0,0-4.5,1.42,12,12,0,0,1-1.46.54,2.56,2.56,0,0,1-.67.13c-.58,0-.88-.42-.88-1.29v-2a2.64,2.64,0,0,1,.29-1.46,3.12,3.12,0,0,1,1.17-.88,24,24,0,0,1,5.25-1.88,25.27,25.27,0,0,1,6.5-.79c5,0,8.59,1.13,10.92,3.38s3.46,5.67,3.46,10.25v13.51Zm-16.92,6.34a13.51,13.51,0,0,0,4.29-.75,9.29,9.29,0,0,0,4-2.67A6.62,6.62,0,0,0,477.4,502a15,15,0,0,0,.42-3.63v-1.75a34.81,34.81,0,0,0-3.84-.71,31.41,31.41,0,0,0-3.92-.25c-2.79,0-4.84.54-6.21,1.67a6,6,0,0,0,3.88,10.75Zm33.47,4.5a2.33,2.33,0,0,1-1.58-.42,3.4,3.4,0,0,1-.88-1.63l-9.8-32.22a7.3,7.3,0,0,1-.38-1.67.91.91,0,0,1,1-1h4.09a2.31,2.31,0,0,1,1.63.42,3.41,3.41,0,0,1,.83,1.63l7,27.6,6.5-27.6a2.92,2.92,0,0,1,.79-1.63,2.87,2.87,0,0,1,1.67-.42h3.33a2.51,2.51,0,0,1,1.67.42,2.81,2.81,0,0,1,.79,1.63l6.59,27.93,7.21-27.93a3.57,3.57,0,0,1,.83-1.63,2.72,2.72,0,0,1,1.63-.42H538a.93.93,0,0,1,1,1,4.16,4.16,0,0,1-.08.67,5.93,5.93,0,0,1-.29,1l-10,32.22a3.2,3.2,0,0,1-.88,1.63,2.67,2.67,0,0,1-1.58.42h-3.58a2.51,2.51,0,0,1-1.67-.42,3,3,0,0,1-.79-1.67l-6.46-26.89-6.42,26.85a3.25,3.25,0,0,1-.79,1.67,2.58,2.58,0,0,1-1.67.42Zm53.57,1.13a27.59,27.59,0,0,1-6.42-.75,19,19,0,0,1-4.79-1.67,3,3,0,0,1-1.29-1.17A2.94,2.94,0,0,1,542,509v-2.13c0-.88.33-1.29,1-1.29a2.36,2.36,0,0,1,.75.13c.25.08.63.25,1,.42a22.67,22.67,0,0,0,4.59,1.46,25,25,0,0,0,5,.5,11.25,11.25,0,0,0,6.09-1.38,4.49,4.49,0,0,0,2.17-4,4.06,4.06,0,0,0-1.13-2.92,10.46,10.46,0,0,0-4.21-2.17l-6-1.88a12.71,12.71,0,0,1-6.67-4.25,9.93,9.93,0,0,1-2.08-6,9.28,9.28,0,0,1,1.13-4.63,10.72,10.72,0,0,1,3-3.42,13.23,13.23,0,0,1,4.34-2.17,18.17,18.17,0,0,1,5.25-.71,20.93,20.93,0,0,1,2.79.17c1,.13,1.83.29,2.71.46s1.63.42,2.38.67a9.1,9.1,0,0,1,1.75.75,3.6,3.6,0,0,1,1.25,1,2.25,2.25,0,0,1,.38,1.38v2c0,.88-.33,1.33-1,1.33a4.34,4.34,0,0,1-1.58-.5,19.07,19.07,0,0,0-8-1.63,10.76,10.76,0,0,0-5.54,1.17,4,4,0,0,0-2,3.71,3.94,3.94,0,0,0,1.25,3,12.45,12.45,0,0,0,4.59,2.29l5.92,1.88c3,1,5.17,2.29,6.46,4a9.43,9.43,0,0,1,1.92,5.84,10.72,10.72,0,0,1-1.08,4.84,11.21,11.21,0,0,1-3,3.67,13.44,13.44,0,0,1-4.63,2.33A19.82,19.82,0,0,1,554.77,513.71Z" transform="translate(-449.33 -474.52)" style="fill:#252f3e"/><path d="M562.65,534c-13.71,10.13-33.64,15.51-50.77,15.51a91.85,91.85,0,0,1-62-23.64c-1.29-1.17-.13-2.75,1.42-1.83a123.11,123.11,0,0,0,109.34,6.79C562.94,529.76,564.9,532.3,562.65,534Z" transform="translate(-449.33 -474.52)" style="fill:#f90"/><path d="M568.36,527.47c-1.75-2.25-11.59-1.08-16-.54-1.33.17-1.54-1-.33-1.88,7.84-5.5,20.72-3.92,22.22-2.08s-.42,14.76-7.75,20.93c-1.13,1-2.21.46-1.71-.79C566.4,539,570.11,529.67,568.36,527.47Z" transform="translate(-449.33 -474.52)" style="fill:#f90"/></svg>