<svg xmlns="http://www.w3.org/2000/svg" xmlns:xlink="http://www.w3.org/1999/xlink" viewBox="0 0 378.08 301.28"><defs><linearGradient id="a" x1="361.03" y1="633.85" x2="691.41" y2="371.6" gradientTransform="matrix(1, 0, 0, -1, 0, 1026)" gradientUnits="userSpaceOnUse"><stop offset="0" stop-color="#9013fe"/><stop offset="1" stop-color="#6610f2"/></linearGradient><linearGradient id="b" x1="462.63" y1="581.7" x2="536.48" y2="456.81" gradientTransform="matrix(1, 0, 0, -1, 0, 1026)" gradientUnits="userSpaceOnUse"><stop offset="0" stop-color="#fff"/><stop offset="1" stop-color="#f1e5fc"/></linearGradient></defs><title>BootStrap logo</title><path d="M364.67,400.73c-.71-20.48,15.25-39.37,36.82-39.37H622.54c21.57,0,37.53,18.89,36.82,39.37-.69,19.68.2,45.17,6.62,65.95s17.29,34,35.06,35.72v19.2c-17.77,1.69-28.63,14.87-35.06,35.72s-7.3,46.27-6.62,66c.71,20.48-15.25,39.37-36.82,39.37H401.49c-21.57,0-37.53-18.89-36.82-39.37.68-19.68-.21-45.17-6.62-66s-17.31-34-35.09-35.72V502.4c17.77-1.69,28.65-14.87,35.09-35.72S365.35,420.41,364.67,400.73Z" transform="translate(-322.96 -361.36)" style="fill:url(#a)"/><path d="M520.2,592.09c34.93,0,56-17.1,56-45.31,0-21.32-15-36.76-37.31-39.2v-.89c16.38-2.67,29.24-17.88,29.24-34.87,0-24.21-19.11-40-48.24-40H454.33V592.09ZM479.81,452.17h33.9c18.43,0,28.9,8.22,28.9,23.1,0,15.88-12.17,24.76-34.24,24.76H479.81Zm0,119.6V519h33.67c24.12,0,36.63,8.88,36.63,26.21S537.95,571.77,515,571.77Z" transform="translate(-322.96 -361.36)" style="stroke:#fff;fill:url(#b)"/></svg>