<svg xmlns="http://www.w3.org/2000/svg" xmlns:xlink="http://www.w3.org/1999/xlink" viewBox="0 0 64 64" width="64" height="64" preserveAspectRatio="xMidYMid meet" style="width: 100%; height: 100%; transform: translate3d(0px, 0px, 0px); content-visibility: visible;"><defs><clipPath id="__lottie_element_14037"><rect width="64" height="64" x="0" y="0"></rect></clipPath></defs><g clip-path="url(#__lottie_element_14037)"><g transform="matrix(1,0,0,1,9.482999801635742,13.770999908447266)" opacity="1" style="display: block;"><g opacity="1" transform="matrix(1,0,0,1,22.04599952697754,16.226999282836914)"><path fill="rgb(255,255,255)" fill-opacity="1" d=" M15.031999588012695,11.22700023651123 C15.031999588012695,11.22700023651123 -15.031000137329102,11.22700023651123 -15.031000137329102,11.22700023651123 C-16.143999099731445,11.22700023651123 -17.04599952697754,10.324999809265137 -17.04599952697754,9.213000297546387 C-17.04599952697754,9.213000297546387 -17.04599952697754,-9.213000297546387 -17.04599952697754,-9.213000297546387 C-17.04599952697754,-10.326000213623047 -16.143999099731445,-11.22700023651123 -15.031000137329102,-11.22700023651123 C-15.031000137329102,-11.22700023651123 15.031999588012695,-11.22700023651123 15.031999588012695,-11.22700023651123 C16.143999099731445,-11.22700023651123 17.04599952697754,-10.326000213623047 17.04599952697754,-9.213000297546387 C17.04599952697754,-9.213000297546387 17.04599952697754,9.213000297546387 17.04599952697754,9.213000297546387 C17.04599952697754,10.324999809265137 16.143999099731445,11.22700023651123 15.031999588012695,11.22700023651123z"></path><path stroke-linecap="round" stroke-linejoin="round" fill-opacity="0" stroke="rgb(0,0,0)" stroke-opacity="1" stroke-width="1" d=" M15.031999588012695,11.22700023651123 C15.031999588012695,11.22700023651123 -15.031000137329102,11.22700023651123 -15.031000137329102,11.22700023651123 C-16.143999099731445,11.22700023651123 -17.04599952697754,10.324999809265137 -17.04599952697754,9.213000297546387 C-17.04599952697754,9.213000297546387 -17.04599952697754,-9.213000297546387 -17.04599952697754,-9.213000297546387 C-17.04599952697754,-10.326000213623047 -16.143999099731445,-11.22700023651123 -15.031000137329102,-11.22700023651123 C-15.031000137329102,-11.22700023651123 15.031999588012695,-11.22700023651123 15.031999588012695,-11.22700023651123 C16.143999099731445,-11.22700023651123 17.04599952697754,-10.326000213623047 17.04599952697754,-9.213000297546387 C17.04599952697754,-9.213000297546387 17.04599952697754,9.213000297546387 17.04599952697754,9.213000297546387 C17.04599952697754,10.324999809265137 16.143999099731445,11.22700023651123 15.031999588012695,11.22700023651123z"></path></g></g><g transform="matrix(1,0,0,1,18.98699951171875,21.222999572753906)" opacity="1" style="display: block;"><g opacity="1" transform="matrix(1,0,0,1,0,0)"><path stroke-linecap="round" stroke-linejoin="round" fill-opacity="0" stroke="rgb(83,109,254)" stroke-opacity="1" stroke-width="1" d=" M24.336000442504883,1 C24.336000442504883,1 9.82800006866455,1 9.82800006866455,1"></path></g><g opacity="1" transform="matrix(1,0,0,1,0,0)"><path stroke-linecap="round" stroke-linejoin="round" fill-opacity="0" stroke="rgb(83,109,254)" stroke-opacity="1" stroke-width="1" d=" M1,1.003000020980835 C1,1.003000020980835 1,1.003000020980835 1,1.003000020980835z"></path></g><g opacity="1" transform="matrix(1,0,0,1,0,0)"><path stroke-linecap="round" stroke-linejoin="round" fill-opacity="0" stroke="rgb(83,109,254)" stroke-opacity="1" stroke-width="1" d=" M3.8469998836517334,1.003000020980835 C3.8469998836517334,1.003000020980835 3.8469998836517334,1.003000020980835 3.8469998836517334,1.003000020980835z"></path></g><g opacity="1" transform="matrix(1,0,0,1,0,0)"><path stroke-linecap="round" stroke-linejoin="round" fill-opacity="0" stroke="rgb(83,109,254)" stroke-opacity="1" stroke-width="1" d=" M6.695000171661377,1.003000020980835 C6.695000171661377,1.003000020980835 6.695000171661377,1.003000020980835 6.695000171661377,1.003000020980835z"></path></g></g><g transform="matrix(1,0,0,1,14.093000411987305,22.746999740600586)" opacity="1" style="display: block;"><g opacity="1" transform="matrix(1,0,0,1,8.293999671936035,6.576000213623047)"><path stroke-linecap="round" stroke-linejoin="round" fill-opacity="0" stroke="rgb(0,0,0)" stroke-opacity="1" stroke-width="1" d=" M2.1530001163482666,1.5770000219345093 C2.1530001163482666,1.5770000219345093 -2.1530001163482666,1.5770000219345093 -2.1530001163482666,1.5770000219345093 C-2.7829999923706055,1.5770000219345093 -3.2939999103546143,1.065999984741211 -3.2939999103546143,0.4359999895095825 C-3.2939999103546143,0.4359999895095825 -3.2939999103546143,-0.4339999854564667 -3.2939999103546143,-0.4339999854564667 C-3.2939999103546143,-1.065000057220459 -2.7829999923706055,-1.5770000219345093 -2.1530001163482666,-1.5770000219345093 C-2.1530001163482666,-1.5770000219345093 2.1530001163482666,-1.5770000219345093 2.1530001163482666,-1.5770000219345093 C2.7829999923706055,-1.5770000219345093 3.2939999103546143,-1.065000057220459 3.2939999103546143,-0.4339999854564667 C3.2939999103546143,-0.4339999854564667 3.2939999103546143,0.4359999895095825 3.2939999103546143,0.4359999895095825 C3.2939999103546143,1.065999984741211 2.7829999923706055,1.5770000219345093 2.1530001163482666,1.5770000219345093z"></path></g><g opacity="1" transform="matrix(1,0,0,1,0,0)"><path stroke-linecap="round" stroke-linejoin="round" fill-opacity="0" stroke="rgb(0,0,0)" stroke-opacity="1" stroke-width="1" d=" M5,11.194999694824219 C5,11.194999694824219 11.588000297546387,11.194999694824219 11.588000297546387,11.194999694824219"></path></g><g opacity="1" transform="matrix(1,0,0,1,0,0)"><path stroke-linecap="round" stroke-linejoin="round" fill-opacity="0" stroke="rgb(0,0,0)" stroke-opacity="1" stroke-width="1" d=" M5,14.720999717712402 C5,14.720999717712402 11.588000297546387,14.720999717712402 11.588000297546387,14.720999717712402"></path></g></g><g transform="matrix(1,0,0,1,29.266998291015625,24.706998825073242)" opacity="1" style="display: block;"><g opacity="1" transform="matrix(1,0,0,1,12.664999961853027,12.76099967956543)"><path fill="rgb(255,255,255)" fill-opacity="1" d=" M6.4670000076293945,-0.15199999511241913 C6.4670000076293945,-0.49399998784065247 6.434000015258789,-0.828000009059906 6.381999969482422,-1.156000018119812 C6.381999969482422,-1.156000018119812 7.2820000648498535,-1.6430000066757202 7.2820000648498535,-1.6430000066757202 C7.561999797821045,-1.7949999570846558 7.665999889373779,-2.1459999084472656 7.513999938964844,-2.4260001182556152 C7.513999938964844,-2.4260001182556152 6.130000114440918,-4.978000164031982 6.130000114440918,-4.978000164031982 C5.9770002365112305,-5.258999824523926 5.626999855041504,-5.36299991607666 5.3460001945495605,-5.210000038146973 C5.3460001945495605,-5.210000038146973 4.5269999504089355,-4.765999794006348 4.5269999504089355,-4.765999794006348 C3.8299999237060547,-5.451000213623047 2.9779999256134033,-5.97599983215332 2.0290000438690186,-6.289999961853027 C2.0290000438690186,-6.289999961853027 2.0290000438690186,-7.184000015258789 2.0290000438690186,-7.184000015258789 C2.0290000438690186,-7.502999782562256 1.7710000276565552,-7.76200008392334 1.4520000219345093,-7.76200008392334 C1.4520000219345093,-7.76200008392334 -1.4509999752044678,-7.76200008392334 -1.4509999752044678,-7.76200008392334 C-1.7710000276565552,-7.76200008392334 -2.0290000438690186,-7.502999782562256 -2.0290000438690186,-7.184000015258789 C-2.0290000438690186,-7.184000015258789 -2.0290000438690186,-6.289999961853027 -2.0290000438690186,-6.289999961853027 C-2.811000108718872,-6.031000137329102 -3.5280001163482666,-5.630000114440918 -4.145999908447266,-5.11299991607666 C-4.145999908447266,-5.11299991607666 -4.916999816894531,-5.614999771118164 -4.916999816894531,-5.614999771118164 C-5.184999942779541,-5.789000034332275 -5.543000221252441,-5.7129998207092285 -5.7170000076293945,-5.445000171661377 C-5.7170000076293945,-5.445000171661377 -7.298999786376953,-3.01200008392334 -7.298999786376953,-3.01200008392334 C-7.4730000495910645,-2.74399995803833 -7.395999908447266,-2.385999917984009 -7.127999782562256,-2.2119998931884766 C-7.127999782562256,-2.2119998931884766 -6.2829999923706055,-1.6629999876022339 -6.2829999923706055,-1.6629999876022339 C-6.39900016784668,-1.1770000457763672 -6.4670000076293945,-0.6729999780654907 -6.4670000076293945,-0.15199999511241913 C-6.4670000076293945,0.2879999876022339 -6.422999858856201,0.7179999947547913 -6.339000225067139,1.1330000162124634 C-6.339000225067139,1.1330000162124634 -7.281000137329102,1.6430000066757202 -7.281000137329102,1.6430000066757202 C-7.560999870300293,1.7949999570846558 -7.665999889373779,2.1470000743865967 -7.513999938964844,2.427999973297119 C-7.513999938964844,2.427999973297119 -6.127999782562256,4.978000164031982 -6.127999782562256,4.978000164031982 C-5.97599983215332,5.258999824523926 -5.625999927520752,5.361999988555908 -5.3460001945495605,5.210000038146973 C-5.3460001945495605,5.210000038146973 -4.317999839782715,4.6519999504089355 -4.317999839782715,4.6519999504089355 C-3.6610000133514404,5.243000030517578 -2.88700008392334,5.702000141143799 -2.0290000438690186,5.986000061035156 C-2.0290000438690186,5.986000061035156 -2.0290000438690186,7.184000015258789 -2.0290000438690186,7.184000015258789 C-2.0290000438690186,7.502999782562256 -1.7710000276565552,7.76200008392334 -1.4509999752044678,7.76200008392334 C-1.4509999752044678,7.76200008392334 1.4520000219345093,7.76200008392334 1.4520000219345093,7.76200008392334 C1.7710000276565552,7.76200008392334 2.0290000438690186,7.502999782562256 2.0290000438690186,7.184000015258789 C2.0290000438690186,7.184000015258789 2.0290000438690186,5.986000061035156 2.0290000438690186,5.986000061035156 C2.7230000495910645,5.75600004196167 3.364000082015991,5.4120001792907715 3.931999921798706,4.974999904632568 C3.931999921798706,4.974999904632568 4.919000148773193,5.614999771118164 4.919000148773193,5.614999771118164 C5.185999870300293,5.789000034332275 5.543000221252441,5.7129998207092285 5.7170000076293945,5.445000171661377 C5.7170000076293945,5.445000171661377 7.298999786376953,3.01200008392334 7.298999786376953,3.01200008392334 C7.4730000495910645,2.74399995803833 7.396999835968018,2.385999917984009 7.130000114440918,2.2119998931884766 C7.130000114440918,2.2119998931884766 6.215000152587891,1.6200000047683716 6.215000152587891,1.6200000047683716 C6.375999927520752,1.055999994277954 6.4670000076293945,0.46299999952316284 6.4670000076293945,-0.15199999511241913z"></path><path stroke-linecap="round" stroke-linejoin="round" fill-opacity="0" stroke="rgb(83,109,254)" stroke-opacity="1" stroke-width="1" d=" M6.4670000076293945,-0.15199999511241913 C6.4670000076293945,-0.49399998784065247 6.434000015258789,-0.828000009059906 6.381999969482422,-1.156000018119812 C6.381999969482422,-1.156000018119812 7.2820000648498535,-1.6430000066757202 7.2820000648498535,-1.6430000066757202 C7.561999797821045,-1.7949999570846558 7.665999889373779,-2.1459999084472656 7.513999938964844,-2.4260001182556152 C7.513999938964844,-2.4260001182556152 6.130000114440918,-4.978000164031982 6.130000114440918,-4.978000164031982 C5.9770002365112305,-5.258999824523926 5.626999855041504,-5.36299991607666 5.3460001945495605,-5.210000038146973 C5.3460001945495605,-5.210000038146973 4.5269999504089355,-4.765999794006348 4.5269999504089355,-4.765999794006348 C3.8299999237060547,-5.451000213623047 2.9779999256134033,-5.97599983215332 2.0290000438690186,-6.289999961853027 C2.0290000438690186,-6.289999961853027 2.0290000438690186,-7.184000015258789 2.0290000438690186,-7.184000015258789 C2.0290000438690186,-7.502999782562256 1.7710000276565552,-7.76200008392334 1.4520000219345093,-7.76200008392334 C1.4520000219345093,-7.76200008392334 -1.4509999752044678,-7.76200008392334 -1.4509999752044678,-7.76200008392334 C-1.7710000276565552,-7.76200008392334 -2.0290000438690186,-7.502999782562256 -2.0290000438690186,-7.184000015258789 C-2.0290000438690186,-7.184000015258789 -2.0290000438690186,-6.289999961853027 -2.0290000438690186,-6.289999961853027 C-2.811000108718872,-6.031000137329102 -3.5280001163482666,-5.630000114440918 -4.145999908447266,-5.11299991607666 C-4.145999908447266,-5.11299991607666 -4.916999816894531,-5.614999771118164 -4.916999816894531,-5.614999771118164 C-5.184999942779541,-5.789000034332275 -5.543000221252441,-5.7129998207092285 -5.7170000076293945,-5.445000171661377 C-5.7170000076293945,-5.445000171661377 -7.298999786376953,-3.01200008392334 -7.298999786376953,-3.01200008392334 C-7.4730000495910645,-2.74399995803833 -7.395999908447266,-2.385999917984009 -7.127999782562256,-2.2119998931884766 C-7.127999782562256,-2.2119998931884766 -6.2829999923706055,-1.6629999876022339 -6.2829999923706055,-1.6629999876022339 C-6.39900016784668,-1.1770000457763672 -6.4670000076293945,-0.6729999780654907 -6.4670000076293945,-0.15199999511241913 C-6.4670000076293945,0.2879999876022339 -6.422999858856201,0.7179999947547913 -6.339000225067139,1.1330000162124634 C-6.339000225067139,1.1330000162124634 -7.281000137329102,1.6430000066757202 -7.281000137329102,1.6430000066757202 C-7.560999870300293,1.7949999570846558 -7.665999889373779,2.1470000743865967 -7.513999938964844,2.427999973297119 C-7.513999938964844,2.427999973297119 -6.127999782562256,4.978000164031982 -6.127999782562256,4.978000164031982 C-5.97599983215332,5.258999824523926 -5.625999927520752,5.361999988555908 -5.3460001945495605,5.210000038146973 C-5.3460001945495605,5.210000038146973 -4.317999839782715,4.6519999504089355 -4.317999839782715,4.6519999504089355 C-3.6610000133514404,5.243000030517578 -2.88700008392334,5.702000141143799 -2.0290000438690186,5.986000061035156 C-2.0290000438690186,5.986000061035156 -2.0290000438690186,7.184000015258789 -2.0290000438690186,7.184000015258789 C-2.0290000438690186,7.502999782562256 -1.7710000276565552,7.76200008392334 -1.4509999752044678,7.76200008392334 C-1.4509999752044678,7.76200008392334 1.4520000219345093,7.76200008392334 1.4520000219345093,7.76200008392334 C1.7710000276565552,7.76200008392334 2.0290000438690186,7.502999782562256 2.0290000438690186,7.184000015258789 C2.0290000438690186,7.184000015258789 2.0290000438690186,5.986000061035156 2.0290000438690186,5.986000061035156 C2.7230000495910645,5.75600004196167 3.364000082015991,5.4120001792907715 3.931999921798706,4.974999904632568 C3.931999921798706,4.974999904632568 4.919000148773193,5.614999771118164 4.919000148773193,5.614999771118164 C5.185999870300293,5.789000034332275 5.543000221252441,5.7129998207092285 5.7170000076293945,5.445000171661377 C5.7170000076293945,5.445000171661377 7.298999786376953,3.01200008392334 7.298999786376953,3.01200008392334 C7.4730000495910645,2.74399995803833 7.396999835968018,2.385999917984009 7.130000114440918,2.2119998931884766 C7.130000114440918,2.2119998931884766 6.215000152587891,1.6200000047683716 6.215000152587891,1.6200000047683716 C6.375999927520752,1.055999994277954 6.4670000076293945,0.46299999952316284 6.4670000076293945,-0.15199999511241913z"></path></g></g><g transform="matrix(1,0,0,1,34.0109977722168,29.546998977661133)" opacity="1" style="display: block;"><g opacity="1" transform="matrix(1,0,0,1,7.921999931335449,7.921000003814697)"><path stroke-linecap="round" stroke-linejoin="round" fill-opacity="0" stroke="rgb(83,109,254)" stroke-opacity="1" stroke-width="1" d=" M-2.9210000038146973,0 C-2.9210000038146973,-1.6130000352859497 -1.6139999628067017,-2.9210000038146973 -0.0010000000474974513,-2.9210000038146973 C1.6130000352859497,-2.9210000038146973 2.9210000038146973,-1.6130000352859497 2.9210000038146973,0 C2.9210000038146973,1.6130000352859497 1.6130000352859497,2.9210000038146973 -0.0010000000474974513,2.9210000038146973 C-1.6139999628067017,2.9210000038146973 -2.9210000038146973,1.6130000352859497 -2.9210000038146973,0z"></path></g></g></g></svg>