<svg id="Layer_1" data-name="Layer 1" xmlns="http://www.w3.org/2000/svg" width="172.97" height="28.45" viewBox="0 0 172.97 28.45"><title>CodeIgniter logo - Brandlogos.net</title><path d="M304.83,397.92a5.39,5.39,0,0,1-3.2-4.49,6.34,6.34,0,0,1,2.87-5,2.29,2.29,0,0,0,.18,2.08,1.91,1.91,0,0,0,1.94.76,2,2,0,0,0,1.38-2.45,2,2,0,0,0-.61-1,4.41,4.41,0,0,1-1.58-4,4.13,4.13,0,0,1,1.29-2.09c-.48,1.27.87,2.52,1.76,3.13a46.71,46.71,0,0,1,4.6,3.15,6.2,6.2,0,0,1,2.35,5.28,5.85,5.85,0,0,1-4,4.61c4.17-.93,8.46-4.24,8.54-8.93a9.72,9.72,0,0,0-5.75-8.66h-.15a1.4,1.4,0,0,1,.11.58,2.19,2.19,0,0,0,0-.39,1.9,1.9,0,0,1,0,.46,2,2,0,0,1-3.49.77c-1.37-1.76,0-3.76.23-5.7a7.24,7.24,0,0,0-3-6.29c1,1.67-.33,3.87-1.31,5.12a33,33,0,0,1-3.53,3.27,28.79,28.79,0,0,0-3.39,3.77,11.47,11.47,0,0,0-2.35,9.63,9.16,9.16,0,0,0,7.06,6.37h0Z" transform="translate(-297.52 -369.77)" style="fill:#dd4814"/><path d="M333.39,383.86a9.43,9.43,0,0,1,.54-3.13,8.86,8.86,0,0,1,1.63-2.81,8.13,8.13,0,0,1,2.61-2,7.67,7.67,0,0,1,3.52-.79,7.24,7.24,0,0,1,4,1.06,6.42,6.42,0,0,1,2.46,2.76l-1.36.84a5,5,0,0,0-1-1.45,5.45,5.45,0,0,0-1.28-1,5.15,5.15,0,0,0-1.43-.52,6.38,6.38,0,0,0-1.45-.17,5.85,5.85,0,0,0-2.78.64,6.55,6.55,0,0,0-2,1.68,7.42,7.42,0,0,0-1.23,2.34,8.35,8.35,0,0,0-.42,2.61,8,8,0,0,0,.49,2.78,8.44,8.44,0,0,0,1.38,2.37,7.09,7.09,0,0,0,2.07,1.63,5.86,5.86,0,0,0,2.61.59,6.81,6.81,0,0,0,1.5-.17,6.22,6.22,0,0,0,1.5-.59,6.77,6.77,0,0,0,1.36-1,5.41,5.41,0,0,0,1-1.48l1.43.74a5.49,5.49,0,0,1-1.18,1.75,8,8,0,0,1-1.7,1.26,8.42,8.42,0,0,1-2,.79,8,8,0,0,1-2,.27,7,7,0,0,1-3.3-.79,8.75,8.75,0,0,1-2.59-2,10,10,0,0,1-1.7-2.88A9.6,9.6,0,0,1,333.39,383.86ZM356.57,393a6.21,6.21,0,0,1-2.56-.52,6.35,6.35,0,0,1-3.33-3.57,6.9,6.9,0,0,1,1.33-7.22,6.61,6.61,0,0,1,2-1.45,6.21,6.21,0,0,1,5.08,0,6.24,6.24,0,0,1,2,1.45,6.43,6.43,0,0,1,1.33,2.12,6.72,6.72,0,0,1,.49,2.56,7,7,0,0,1-.47,2.54,6.44,6.44,0,0,1-1.33,2.12,6.06,6.06,0,0,1-4.58,2Zm-4.66-6.6a5.45,5.45,0,0,0,.37,2,5.82,5.82,0,0,0,1,1.63,4.78,4.78,0,0,0,1.48,1.08,4.33,4.33,0,0,0,1.82.39,4.17,4.17,0,0,0,1.8-.39,5,5,0,0,0,1.5-1.11,5.45,5.45,0,0,0,1.38-3.67,5.39,5.39,0,0,0-.37-2,5.07,5.07,0,0,0-1-1.65,4.53,4.53,0,0,0-1.5-1.11,4.07,4.07,0,0,0-3.6,0,4.61,4.61,0,0,0-1.48,1.11,5.37,5.37,0,0,0-1,1.68A5.45,5.45,0,0,0,351.92,386.37ZM371,393a5.64,5.64,0,0,1-2.46-.54,6.44,6.44,0,0,1-1.95-1.48,7,7,0,0,1-1.28-2.09,7.23,7.23,0,0,1-.44-2.51,7.37,7.37,0,0,1,.44-2.56,7,7,0,0,1,1.21-2.14,5.77,5.77,0,0,1,1.85-1.43,5.21,5.21,0,0,1,2.37-.54,5,5,0,0,1,2.88.86,6.32,6.32,0,0,1,2,2v-7.84h1.68v15.82q0,.69.59.69v1.48a3.18,3.18,0,0,1-.59.07,1.57,1.57,0,0,1-1-.37,1.21,1.21,0,0,1-.44-.94v-1.26a5.61,5.61,0,0,1-2.07,2A5.43,5.43,0,0,1,371,393Zm.37-1.48a3.89,3.89,0,0,0,1.31-.25,5.6,5.6,0,0,0,1.33-.67,4.66,4.66,0,0,0,1-1,2.75,2.75,0,0,0,.54-1.26v-4a4.23,4.23,0,0,0-.71-1.23,5.4,5.4,0,0,0-1.08-1,4.83,4.83,0,0,0-1.28-.69,4,4,0,0,0-1.36-.25,3.94,3.94,0,0,0-1.87.44,4.8,4.8,0,0,0-1.45,1.18,5.2,5.2,0,0,0-.91,1.65,5.9,5.9,0,0,0-.32,1.92,5.32,5.32,0,0,0,.37,2,5.44,5.44,0,0,0,1,1.65,5,5,0,0,0,1.5,1.11A4.39,4.39,0,0,0,371.41,391.5ZM386.63,393a6.38,6.38,0,0,1-2.59-.52,6.61,6.61,0,0,1-2-1.45,6.75,6.75,0,0,1-1.82-4.73,6.83,6.83,0,0,1,.47-2.54,6.71,6.71,0,0,1,1.33-2.09,6.21,6.21,0,0,1,2-1.43,6.08,6.08,0,0,1,2.56-.54,6.3,6.3,0,0,1,4.58,2,6.77,6.77,0,0,1,1.77,4.61v.39a1,1,0,0,1,0,.27H382a5.69,5.69,0,0,0,.47,1.92,5.51,5.51,0,0,0,1.06,1.5,4.92,4.92,0,0,0,1.45,1,4.61,4.61,0,0,0,1.77.34,4.55,4.55,0,0,0,1.23-.17,5,5,0,0,0,1.13-.47,4.42,4.42,0,0,0,.94-.71,3.28,3.28,0,0,0,.64-1l1.45.39a4.43,4.43,0,0,1-.84,1.31,6.39,6.39,0,0,1-1.26,1,6.79,6.79,0,0,1-1.58.67A7.19,7.19,0,0,1,386.63,393Zm-4.71-7.34h9.44a4.93,4.93,0,0,0-.49-1.87,4.79,4.79,0,0,0-1-1.48,4.56,4.56,0,0,0-3.2-1.31,4.61,4.61,0,0,0-1.77.34,4.69,4.69,0,0,0-1.48,1,5,5,0,0,0-1,1.48A5.79,5.79,0,0,0,381.93,385.64Zm17,7.1h-3.4V375.24h3.4Zm8.23.07a5.32,5.32,0,0,1-2.37-.52,5.94,5.94,0,0,1-1.85-1.4,6.72,6.72,0,0,1-1.18-2.09,7.83,7.83,0,0,1,0-5.13,6.78,6.78,0,0,1,1.23-2.12,5.62,5.62,0,0,1,1.9-1.43,5.7,5.7,0,0,1,2.44-.52,5,5,0,0,1,2.64.69,5.6,5.6,0,0,1,1.87,1.8v-2.27h2.88v12.3a5.87,5.87,0,0,1-.54,2.56,5.55,5.55,0,0,1-1.5,1.92,6.5,6.5,0,0,1-2.27,1.21,9.32,9.32,0,0,1-2.86.42,8.3,8.3,0,0,1-3.57-.69,7.39,7.39,0,0,1-2.46-2l1.8-1.75a5.14,5.14,0,0,0,1.85,1.43,5.69,5.69,0,0,0,2.39.52,5.27,5.27,0,0,0,1.45-.2,3.69,3.69,0,0,0,1.26-.67,2.92,2.92,0,0,0,.84-1.13,3.83,3.83,0,0,0,.32-1.63v-1.63a4.44,4.44,0,0,1-1.8,1.72A5.39,5.39,0,0,1,407.16,392.81Zm1.11-2.64a3.11,3.11,0,0,0,1-.17,3.69,3.69,0,0,0,1.65-1.16,3.12,3.12,0,0,0,.49-.84v-3.08a4,4,0,0,0-1.4-1.82,3.27,3.27,0,0,0-2-.69,2.78,2.78,0,0,0-1.38.34,3.22,3.22,0,0,0-1.06.89,4,4,0,0,0-.69,1.26,5,5,0,0,0-.22,1.48,4,4,0,0,0,.27,1.48,3.91,3.91,0,0,0,.74,1.21,3.69,3.69,0,0,0,1.13.81A3.31,3.31,0,0,0,408.27,390.17Zm21.46-5.49v8.06h-3.3v-7.24a3.77,3.77,0,0,0-.54-2.27,1.78,1.78,0,0,0-1.5-.71,2.83,2.83,0,0,0-1,.2,3.73,3.73,0,0,0-1,.57,4.39,4.39,0,0,0-.81.84,3.36,3.36,0,0,0-.54,1.08v7.54h-3.3V379.82h3v2.39a4.89,4.89,0,0,1,2.07-1.92,6.64,6.64,0,0,1,3.06-.69,3.89,3.89,0,0,1,2,.44A3.2,3.2,0,0,1,429,381.2a4.66,4.66,0,0,1,.57,1.63A9.92,9.92,0,0,1,429.73,384.67Zm6.18,8.06h-3.3V379.82h3.3Zm0-14.71h-3.3v-3.28h3.3ZM446,389.45l.67,2.61a14.73,14.73,0,0,1-1.63.59,6.83,6.83,0,0,1-2,.3,4.82,4.82,0,0,1-1.31-.17,3.09,3.09,0,0,1-1.06-.54,2.93,2.93,0,0,1-.71-1,3.66,3.66,0,0,1-.27-1.48v-7.42h-1.7v-2.54h1.7v-4.19h3.3v4.19h2.71v2.54h-2.71v6.31a1.24,1.24,0,0,0,.34,1,1.46,1.46,0,0,0,.89.27,3,3,0,0,0,1-.17ZM454,393a7.31,7.31,0,0,1-2.81-.52,6.48,6.48,0,0,1-3.52-3.57,7,7,0,0,1-.47-2.54,7.09,7.09,0,0,1,.47-2.59,6.19,6.19,0,0,1,1.36-2.14,6.41,6.41,0,0,1,2.14-1.48,7.27,7.27,0,0,1,2.86-.54,6.91,6.91,0,0,1,2.81.54,6.32,6.32,0,0,1,2.12,1.45,5.94,5.94,0,0,1,1.33,2.12,6.89,6.89,0,0,1,.47,2.51q0,.32,0,.62a2.07,2.07,0,0,1,0,.49h-10a3.83,3.83,0,0,0,.37,1.36,3.32,3.32,0,0,0,1.82,1.65,3.48,3.48,0,0,0,1.23.22,3.81,3.81,0,0,0,1.85-.47,2.59,2.59,0,0,0,1.21-1.28l2.83.79a5.82,5.82,0,0,1-2.29,2.44A7.07,7.07,0,0,1,454,393Zm-3.35-7.79h6.7a3.36,3.36,0,0,0-1.08-2.32,3.38,3.38,0,0,0-3.55-.64,3.11,3.11,0,0,0-1,.64,3.57,3.57,0,0,0-.74,1A3.72,3.72,0,0,0,450.67,385.19Zm19.81-5.52v3a6.39,6.39,0,0,0-2.69.59,3.34,3.34,0,0,0-1.7,1.65v7.81h-3.3V379.82h3v2.76a5.58,5.58,0,0,1,.81-1.18,6,6,0,0,1,1-.94,4.42,4.42,0,0,1,1.08-.59,3,3,0,0,1,1.08-.22h.39Z" transform="translate(-297.52 -369.77)" style="fill:#dd4814"/></svg>