<svg xmlns="http://www.w3.org/2000/svg" xmlns:xlink="http://www.w3.org/1999/xlink" viewBox="0 0 64 64" width="64" height="64" preserveAspectRatio="xMidYMid meet" style="width: 100%; height: 100%; transform: translate3d(0px, 0px, 0px); content-visibility: visible;">
<defs><clipPath id="__lottie_element_16201"><rect width="64" height="64" x="0" y="0"></rect></clipPath></defs><g clip-path="url(#__lottie_element_16201)"><g transform="matrix(1,0,0,1,11.518999099731445,11.518999099731445)" opacity="1" style="display: block;"><g opacity="1" transform="matrix(1,0,0,1,20.481000900268555,20.481000900268555)"><path fill="rgb(255,255,255)" fill-opacity="1" d=" M-15.480999946594238,-7.48799991607666 C-15.480999946594238,-7.48799991607666 -15.480999946594238,7.486999988555908 -15.480999946594238,7.486999988555908 C-15.480999946594238,11.902000427246094 -11.902000427246094,15.480999946594238 -7.48799991607666,15.480999946594238 C-7.48799991607666,15.480999946594238 7.48799991607666,15.480999946594238 7.48799991607666,15.480999946594238 C11.902000427246094,15.480999946594238 15.480999946594238,11.902000427246094 15.480999946594238,7.486999988555908 C15.480999946594238,7.486999988555908 15.480999946594238,-7.48799991607666 15.480999946594238,-7.48799991607666 C15.480999946594238,-11.902999877929688 11.902000427246094,-15.480999946594238 7.48799991607666,-15.480999946594238 C7.48799991607666,-15.480999946594238 -7.48799991607666,-15.480999946594238 -7.48799991607666,-15.480999946594238 C-11.902000427246094,-15.480999946594238 -15.480999946594238,-11.902999877929688 -15.480999946594238,-7.48799991607666z"></path><path stroke-linecap="round" stroke-linejoin="round" fill-opacity="0" stroke="rgb(0,0,0)" stroke-opacity="1" stroke-width="1" d=" M-15.480999946594238,-7.48799991607666 C-15.480999946594238,-7.48799991607666 -15.480999946594238,7.486999988555908 -15.480999946594238,7.486999988555908 C-15.480999946594238,11.902000427246094 -11.902000427246094,15.480999946594238 -7.48799991607666,15.480999946594238 C-7.48799991607666,15.480999946594238 7.48799991607666,15.480999946594238 7.48799991607666,15.480999946594238 C11.902000427246094,15.480999946594238 15.480999946594238,11.902000427246094 15.480999946594238,7.486999988555908 C15.480999946594238,7.486999988555908 15.480999946594238,-7.48799991607666 15.480999946594238,-7.48799991607666 C15.480999946594238,-11.902999877929688 11.902000427246094,-15.480999946594238 7.48799991607666,-15.480999946594238 C7.48799991607666,-15.480999946594238 -7.48799991607666,-15.480999946594238 -7.48799991607666,-15.480999946594238 C-11.902000427246094,-15.480999946594238 -15.480999946594238,-11.902999877929688 -15.480999946594238,-7.48799991607666z"></path></g><g opacity="1" transform="matrix(1,0,0,1,26.64699935913086,26.58300018310547)"><path stroke-linecap="round" stroke-linejoin="round" fill-opacity="0" stroke="rgb(0,0,0)" stroke-opacity="1" stroke-width="1" d=" M-4.184000015258789,2.015000104904175 C-4.184000015258789,2.015000104904175 -4.184000015258789,-2.015000104904175 -4.184000015258789,-2.015000104904175 C-4.184000015258789,-3.2130000591278076 -3.2130000591278076,-4.184000015258789 -2.015000104904175,-4.184000015258789 C-2.015000104904175,-4.184000015258789 2.015000104904175,-4.184000015258789 2.015000104904175,-4.184000015258789 C3.2130000591278076,-4.184000015258789 4.184000015258789,-3.2130000591278076 4.184000015258789,-2.015000104904175 C4.184000015258789,-2.015000104904175 4.184000015258789,2.015000104904175 4.184000015258789,2.015000104904175 C4.184000015258789,3.2130000591278076 3.2130000591278076,4.184000015258789 2.015000104904175,4.184000015258789 C2.015000104904175,4.184000015258789 -2.015000104904175,4.184000015258789 -2.015000104904175,4.184000015258789 C-3.2130000591278076,4.184000015258789 -4.184000015258789,3.2130000591278076 -4.184000015258789,2.015000104904175z"></path></g></g><g transform="matrix(1,0,0,1,16.618999481201172,16.781999588012695)" opacity="1" style="display: block;"><g opacity="1" transform="matrix(1,0,0,1,21.547000885009766,9.184000015258789)"><path stroke-linecap="round" stroke-linejoin="round" fill-opacity="0" stroke="rgb(83,109,254)" stroke-opacity="1" stroke-width="1" d=" M-4.184000015258789,2.015000104904175 C-4.184000015258789,2.015000104904175 -4.184000015258789,-2.015000104904175 -4.184000015258789,-2.015000104904175 C-4.184000015258789,-3.2130000591278076 -3.2130000591278076,-4.184000015258789 -2.015000104904175,-4.184000015258789 C-2.015000104904175,-4.184000015258789 2.015000104904175,-4.184000015258789 2.015000104904175,-4.184000015258789 C3.2130000591278076,-4.184000015258789 4.184000015258789,-3.2130000591278076 4.184000015258789,-2.015000104904175 C4.184000015258789,-2.015000104904175 4.184000015258789,2.015000104904175 4.184000015258789,2.015000104904175 C4.184000015258789,3.2130000591278076 3.2130000591278076,4.184000015258789 2.015000104904175,4.184000015258789 C2.015000104904175,4.184000015258789 -2.015000104904175,4.184000015258789 -2.015000104904175,4.184000015258789 C-3.2130000591278076,4.184000015258789 -4.184000015258789,3.2130000591278076 -4.184000015258789,2.015000104904175z"></path></g><g opacity="1" transform="matrix(1,0,0,1,9.184000015258789,15.21500015258789)"><path stroke-linecap="round" stroke-linejoin="round" fill-opacity="0" stroke="rgb(83,109,254)" stroke-opacity="1" stroke-width="1" d=" M-4.184000015258789,7.349999904632568 C-4.184000015258789,7.349999904632568 -4.184000015258789,-7.349999904632568 -4.184000015258789,-7.349999904632568 C-4.184000015258789,-8.932000160217285 -2.9019999504089355,-10.21399974822998 -1.3200000524520874,-10.21399974822998 C-1.3200000524520874,-10.21399974822998 1.3200000524520874,-10.21399974822998 1.3200000524520874,-10.21399974822998 C2.9010000228881836,-10.21399974822998 4.184000015258789,-8.932000160217285 4.184000015258789,-7.349999904632568 C4.184000015258789,-7.349999904632568 4.184000015258789,7.349999904632568 4.184000015258789,7.349999904632568 C4.184000015258789,8.932000160217285 2.9010000228881836,10.21399974822998 1.3200000524520874,10.21399974822998 C1.3200000524520874,10.21399974822998 -1.3200000524520874,10.21399974822998 -1.3200000524520874,10.21399974822998 C-2.9019999504089355,10.21399974822998 -4.184000015258789,8.932000160217285 -4.184000015258789,7.349999904632568z"></path></g></g></g></svg>