<svg xmlns="http://www.w3.org/2000/svg" viewBox="0 0 129 193.5"><defs><style>.a{fill:#1abcfe;}.b{fill:#0acf83;}.c{fill:#ff7262;}.d{fill:#f24e1e;}.e{fill:#a259ff;}</style></defs><title>Figma logo - Brandlogos.net</title><path class="a" d="M512,512a32.25,32.25,0,1,1,32.25,32.25A32.25,32.25,0,0,1,512,512Z" transform="translate(-447.5 -415.25)"/><path class="b" d="M447.5,576.5a32.25,32.25,0,0,1,32.25-32.25H512V576.5a32.25,32.25,0,0,1-64.5,0Z" transform="translate(-447.5 -415.25)"/><path class="c" d="M512,415.25v64.5h32.25a32.25,32.25,0,0,0,0-64.5Z" transform="translate(-447.5 -415.25)"/><path class="d" d="M447.5,447.5a32.25,32.25,0,0,0,32.25,32.25H512v-64.5H479.75A32.25,32.25,0,0,0,447.5,447.5Z" transform="translate(-447.5 -415.25)"/><path class="e" d="M447.5,512a32.25,32.25,0,0,0,32.25,32.25H512v-64.5H479.75A32.25,32.25,0,0,0,447.5,512Z" transform="translate(-447.5 -415.25)"/></svg>