<svg xmlns="http://www.w3.org/2000/svg" viewBox="0 0 187.47 78.3"><title>Git logo</title><path d="M544.51,499.73a11.85,11.85,0,0,1,2.76,7.55c0,8.29-6.5,13.15-15.91,13.15a23.76,23.76,0,0,1-5.9-.67l-2.47,4,7.32.45c12.93.82,20.54,1.2,20.54,11.13,0,8.59-7.54,13.45-20.54,13.45-13.52,0-18.68-3.44-18.68-9.34,0-3.36,1.49-5.15,4.11-7.62a5,5,0,0,1-3.29-4.93,6.7,6.7,0,0,1,2.17-4.56c1.35-1.42,2.84-2.84,4.63-4.48-3.66-1.79-6.43-5.68-6.43-11.21,0-8.59,5.68-14.49,17.11-14.49a25.63,25.63,0,0,1,6.88.75h14.57v6.35ZM522.4,533.8c-1,1.19-1.94,2.46-1.94,4,0,3,3.81,3.88,9,3.88,4.33,0,10.24-.3,10.24-4.33,0-2.39-2.84-2.54-6.43-2.77Zm8.22-34.3c-4.11,0-7.17,2-7.17,6.88,0,3.66,2,6.2,7,6.2,4.18,0,7-2.46,7-6.35C537.42,501.82,534.88,499.5,530.62,499.5Z" transform="translate(-418.27 -472.85)" style="fill:#31251c"/><path d="M554.89,531v-5.9l3.81-.52c1-.15,1.19-.37,1.19-1.5v-22c0-.82-.22-1.35-1-1.57l-4-1.42.82-6h15.47v31c0,1.2.07,1.35,1.2,1.5l3.81.52V531Zm9.64-44.9c-4.26,0-6.72-2.47-6.72-6.73s2.46-6.57,6.72-6.57,6.8,2.32,6.8,6.57S568.87,486.15,564.53,486.15Z" transform="translate(-418.27 -472.85)" style="fill:#31251c"/><path d="M605.73,528.15a29.88,29.88,0,0,1-12.18,3c-8.89,0-12.25-3.58-12.25-12V499.54c0-.45,0-.75-.6-.75h-5.23v-6.65c6.58-.75,9.19-4,10-12.18h7.1v10.61c0,.52,0,.75.6.75h10.53v7.47H592.58v17.86c0,4.41,1,6.13,5.08,6.13a17.79,17.79,0,0,0,6.05-1.19Z" transform="translate(-418.27 -472.85)" style="fill:#31251c"/><path d="M495,508.55l-34.16-34.16a5,5,0,0,0-7.13,0l-7.09,7.09,9,9a6,6,0,0,1,7.58,7.63l8.67,8.67a6,6,0,1,1-3.59,3.38l-8.09-8.09v21.28a6,6,0,1,1-4.93-.17V501.7a5.93,5.93,0,0,1-2-1.31,6,6,0,0,1-1.29-6.55L443.17,485l-23.42,23.42a5,5,0,0,0,0,7.13l34.16,34.16a5,5,0,0,0,7.13,0l34-34A5,5,0,0,0,495,508.55Z" transform="translate(-418.27 -472.85)" style="fill:#f42534"/></svg>