<svg xmlns="http://www.w3.org/2000/svg" viewBox="0 0 201.56 207.5"><title>Laravel logo</title><path d="M612.67,455.19a3.28,3.28,0,0,1,.11.85v44.54a3.25,3.25,0,0,1-1.63,2.82l-37.38,21.52v42.66a3.26,3.26,0,0,1-1.62,2.82l-78,44.92a3.49,3.49,0,0,1-.57.24c-.07,0-.14.07-.22.09a3.27,3.27,0,0,1-1.66,0c-.09,0-.17-.07-.26-.11a3.38,3.38,0,0,1-.54-.22l-78-44.92a3.25,3.25,0,0,1-1.63-2.82V434a3.32,3.32,0,0,1,.11-.85c0-.09.08-.18.11-.27a3.2,3.2,0,0,1,.21-.5,3,3,0,0,1,.22-.29,3.31,3.31,0,0,1,.29-.38,3.17,3.17,0,0,1,.32-.24,2.65,2.65,0,0,1,.36-.28h0l39-22.46a3.26,3.26,0,0,1,3.25,0l39,22.46h0a4,4,0,0,1,.36.28,3.84,3.84,0,0,1,.32.24,3.8,3.8,0,0,1,.29.38,3,3,0,0,1,.22.29,3.39,3.39,0,0,1,.21.5c0,.09.09.18.11.28a3.28,3.28,0,0,1,.11.85v83.46l32.51-18.72V456a3.28,3.28,0,0,1,.11-.84c0-.1.08-.18.11-.28a3.66,3.66,0,0,1,.21-.5c.06-.11.15-.19.22-.29a3.34,3.34,0,0,1,.29-.38,3.12,3.12,0,0,1,.32-.24,3.28,3.28,0,0,1,.36-.28h0l39-22.46a3.25,3.25,0,0,1,3.25,0l39,22.46a3.59,3.59,0,0,1,.37.28c.1.08.22.15.31.24a3.8,3.8,0,0,1,.29.38,2.45,2.45,0,0,1,.22.29,3.22,3.22,0,0,1,.21.5A2.32,2.32,0,0,1,612.67,455.19Zm-6.39,43.51v-37l-13.65,7.86-18.86,10.86v37l32.52-18.72Zm-39,67V528.64l-18.55,10.59-53,30.23v37.41ZM417.72,439.58V565.7l71.52,41.17v-37.4l-37.36-21.15h0a151.92,151.92,0,0,0-.66-.5h0a3.09,3.09,0,0,1-.27-.34,3.47,3.47,0,0,1-.24-.32h0a2.59,2.59,0,0,1-.17-.41,2.4,2.4,0,0,1-.15-.37h0a3.11,3.11,0,0,1-.06-.47,2.82,2.82,0,0,1,0-.37h0V458.3l-18.86-10.86-13.65-7.85Zm35.76-24.33L421,434l32.5,18.71L486,434l-32.5-18.71ZM470.39,532l18.86-10.85V439.58l-13.65,7.86L456.73,458.3v81.58Zm100.13-94.68L538,456l32.5,18.71L603,456Zm-3.25,43-18.86-10.86-13.65-7.86v37l18.86,10.85,13.66,7.86Zm-74.78,83.46,47.67-27.21L564,523l-32.47-18.7-37.39,21.53L460,545.48Z" transform="translate(-411.22 -408.25)" style="fill:#ff2d20"/></svg>