<svg xmlns="http://www.w3.org/2000/svg" width="257.95" height="155.96" viewBox="0 0 257.95 155.96"><title>Next.js logo - Brandlogos.net</title><path d="M443.89,474.7h48.65v3.88H448.35v29.17h41.56v3.88H448.35v32H493v3.88H443.89Zm53,0h5.17l22.91,32,23.41-32L580.24,434l-52.32,76.06,27,37.43H549.5L525,513.45l-24.63,34.06h-5.27l27.16-37.43L496.9,474.7Zm59.9,3.88V474.7h55.44v3.88H586.7v68.94h-4.46V478.57H556.8ZM383,474.7h5.58L465.47,590,433.7,547.51l-46-67.31-.2,67.31H383ZM611.8,542.47a1.62,1.62,0,1,1,1.59-1.62,1.58,1.58,0,0,1-1.59,1.62Zm4.38-4.27h2.39a2.18,2.18,0,0,0,2.36,2.17c1.55,0,2.43-.93,2.43-2.69v-11.1h2.43v11.11c0,3.16-1.82,5-4.84,5-2.83,0-4.77-1.76-4.77-4.46Zm12.79-.14h2.41c.21,1.49,1.66,2.44,3.75,2.44s3.38-1,3.38-2.41c0-1.2-.91-1.92-3-2.41l-2-.49c-2.83-.66-4.12-2-4.12-4.34,0-2.8,2.28-4.66,5.69-4.66,3.18,0,5.5,1.86,5.64,4.51h-2.36c-.23-1.45-1.48-2.35-3.31-2.35s-3.2.93-3.2,2.34c0,1.12.82,1.76,2.86,2.24l1.72.42c3.21.75,4.53,2.06,4.53,4.42,0,3-2.32,4.89-6,4.89-3.47,0-5.8-1.8-6-4.61Z" transform="translate(-383.02 -434.02)"/></svg>