<svg xmlns="http://www.w3.org/2000/svg" xmlns:xlink="http://www.w3.org/1999/xlink" viewBox="0 0 64 64" width="64" height="64" preserveAspectRatio="xMidYMid meet" style="width: 100%; height: 100%; transform: translate3d(0px, 0px, 0px); content-visibility: visible;"><defs><clipPath id="__lottie_element_16109"><rect width="64" height="64" x="0" y="0"></rect></clipPath></defs><g clip-path="url(#__lottie_element_16109)"><g transform="matrix(1,0,0,1,23.833999633789062,40.81100082397461)" opacity="1" style="display: block;"><g opacity="1" transform="matrix(1,0,0,1,0,0)"><path stroke-linecap="round" stroke-linejoin="round" fill-opacity="0" stroke="rgb(83,109,254)" stroke-opacity="1" stroke-width="1" d=" M1,5.044000148773193 C1,5.044000148773193 13.282999992370605,5.044000148773193 13.282999992370605,5.044000148773193"></path></g><g opacity="1" transform="matrix(1,0,0,1,0,0)"><path stroke-linecap="round" stroke-linejoin="round" fill-opacity="0" stroke="rgb(83,109,254)" stroke-opacity="1" stroke-width="1" d=" M10.51200008392334,1 C10.51200008392334,1 10.51200008392334,5.044000148773193 10.51200008392334,5.044000148773193"></path></g><g opacity="1" transform="matrix(1,0,0,1,0,0)"><path stroke-linecap="round" stroke-linejoin="round" fill-opacity="0" stroke="rgb(83,109,254)" stroke-opacity="1" stroke-width="1" d=" M3.4719998836517334,5.044000148773193 C3.4719998836517334,5.044000148773193 3.4719998836517334,1 3.4719998836517334,1"></path></g></g><g transform="matrix(1,0,0,1,9.423999786376953,13.144001007080078)" opacity="1" style="display: block;"><g opacity="1" transform="matrix(1,0,0,1,21.552000045776367,16.833999633789062)"><path fill="rgb(255,255,255)" fill-opacity="1" d=" M14.175999641418457,11.833000183105469 C14.175999641418457,11.833000183105469 -14.175999641418457,11.833000183105469 -14.175999641418457,11.833000183105469 C-15.48799991607666,11.833000183105469 -16.551000595092773,10.770000457763672 -16.551000595092773,9.458000183105469 C-16.551000595092773,9.458000183105469 -16.551000595092773,-9.458000183105469 -16.551000595092773,-9.458000183105469 C-16.551000595092773,-10.770000457763672 -15.48799991607666,-11.833000183105469 -14.175999641418457,-11.833000183105469 C-14.175999641418457,-11.833000183105469 14.175999641418457,-11.833000183105469 14.175999641418457,-11.833000183105469 C15.48799991607666,-11.833000183105469 16.551000595092773,-10.770000457763672 16.551000595092773,-9.458000183105469 C16.551000595092773,-9.458000183105469 16.551000595092773,9.458000183105469 16.551000595092773,9.458000183105469 C16.551000595092773,10.770000457763672 15.48799991607666,11.833000183105469 14.175999641418457,11.833000183105469z"></path><path stroke-linecap="round" stroke-linejoin="round" fill-opacity="0" stroke="rgb(83,109,254)" stroke-opacity="1" stroke-width="1" d=" M14.175999641418457,11.833000183105469 C14.175999641418457,11.833000183105469 -14.175999641418457,11.833000183105469 -14.175999641418457,11.833000183105469 C-15.48799991607666,11.833000183105469 -16.551000595092773,10.770000457763672 -16.551000595092773,9.458000183105469 C-16.551000595092773,9.458000183105469 -16.551000595092773,-9.458000183105469 -16.551000595092773,-9.458000183105469 C-16.551000595092773,-10.770000457763672 -15.48799991607666,-11.833000183105469 -14.175999641418457,-11.833000183105469 C-14.175999641418457,-11.833000183105469 14.175999641418457,-11.833000183105469 14.175999641418457,-11.833000183105469 C15.48799991607666,-11.833000183105469 16.551000595092773,-10.770000457763672 16.551000595092773,-9.458000183105469 C16.551000595092773,-9.458000183105469 16.551000595092773,9.458000183105469 16.551000595092773,9.458000183105469 C16.551000595092773,10.770000457763672 15.48799991607666,11.833000183105469 14.175999641418457,11.833000183105469z"></path></g></g><g transform="matrix(1,0,0,1,19.489999771118164,19.511001586914062)" opacity="1" style="display: block;"><g opacity="1" transform="matrix(1,0,0,1,9.013999938964844,9.006999969482422)"><path stroke-linecap="round" stroke-linejoin="round" fill-opacity="0" stroke="rgb(0,0,0)" stroke-opacity="1" stroke-width="1" d=" M-4.006999969482422,4.006999969482422 C-4.006999969482422,4.006999969482422 4.006999969482422,-4.006999969482422 4.006999969482422,-4.006999969482422"></path></g><g opacity="1" transform="matrix(1,0,0,1,11.638999938964844,6.381999969482422)"><path stroke-linecap="round" stroke-linejoin="round" fill-opacity="0" stroke="rgb(0,0,0)" stroke-opacity="1" stroke-width="1" d=" M-1.3819999694824219,-1.3819999694824219 C-1.3819999694824219,-1.3819999694824219 1.3819999694824219,-1.3819999694824219 1.3819999694824219,-1.3819999694824219 C1.3819999694824219,-1.3819999694824219 1.3819999694824219,1.3819999694824219 1.3819999694824219,1.3819999694824219"></path></g><g opacity="1" transform="matrix(1,0,0,1,6.38100004196167,11.638999938964844)"><path stroke-linecap="round" stroke-linejoin="round" fill-opacity="0" stroke="rgb(0,0,0)" stroke-opacity="1" stroke-width="1" d=" M1.3819999694824219,1.3819999694824219 C1.3819999694824219,1.3819999694824219 -1.3819999694824219,1.3819999694824219 -1.3819999694824219,1.3819999694824219 C-1.3819999694824219,1.3819999694824219 -1.3819999694824219,-1.3819999694824219 -1.3819999694824219,-1.3819999694824219"></path></g></g><g transform="matrix(1,0,0,1,13.42300033569336,36.91600036621094)" opacity="1" style="display: block;"><g opacity="1" transform="matrix(1,0,0,1,0,0)"><path stroke-linecap="round" stroke-linejoin="round" fill-opacity="0" stroke="rgb(83,109,254)" stroke-opacity="1" stroke-width="1" d=" M1,1 C1,1 34.10300064086914,1 34.10300064086914,1"></path></g></g><g transform="matrix(1,0,0,1,33.37299728393555,20.31399917602539)" opacity="1" style="display: block;"><g opacity="1" transform="matrix(1,0,0,1,10.60200023651123,15.270000457763672)"><path fill="rgb(255,255,255)" fill-opacity="1" d=" M-3.6500000953674316,-10.270999908447266 C-3.6500000953674316,-10.270999908447266 3.6500000953674316,-10.270999908447266 3.6500000953674316,-10.270999908447266 C4.728000164031982,-10.270999908447266 5.6020002365112305,-9.395999908447266 5.6020002365112305,-8.317999839782715 C5.6020002365112305,-8.317999839782715 5.6020002365112305,8.317999839782715 5.6020002365112305,8.317999839782715 C5.6020002365112305,9.395999908447266 4.728000164031982,10.270999908447266 3.6500000953674316,10.270999908447266 C3.6500000953674316,10.270999908447266 -3.6500000953674316,10.270999908447266 -3.6500000953674316,10.270999908447266 C-4.728000164031982,10.270999908447266 -5.6020002365112305,9.395999908447266 -5.6020002365112305,8.317999839782715 C-5.6020002365112305,8.317999839782715 -5.6020002365112305,-8.317999839782715 -5.6020002365112305,-8.317999839782715 C-5.6020002365112305,-9.395999908447266 -4.728000164031982,-10.270999908447266 -3.6500000953674316,-10.270999908447266z"></path><path stroke-linecap="round" stroke-linejoin="round" fill-opacity="0" stroke="rgb(0,0,0)" stroke-opacity="1" stroke-width="1" d=" M-3.6500000953674316,-10.270999908447266 C-3.6500000953674316,-10.270999908447266 3.6500000953674316,-10.270999908447266 3.6500000953674316,-10.270999908447266 C4.728000164031982,-10.270999908447266 5.6020002365112305,-9.395999908447266 5.6020002365112305,-8.317999839782715 C5.6020002365112305,-8.317999839782715 5.6020002365112305,8.317999839782715 5.6020002365112305,8.317999839782715 C5.6020002365112305,9.395999908447266 4.728000164031982,10.270999908447266 3.6500000953674316,10.270999908447266 C3.6500000953674316,10.270999908447266 -3.6500000953674316,10.270999908447266 -3.6500000953674316,10.270999908447266 C-4.728000164031982,10.270999908447266 -5.6020002365112305,9.395999908447266 -5.6020002365112305,8.317999839782715 C-5.6020002365112305,8.317999839782715 -5.6020002365112305,-8.317999839782715 -5.6020002365112305,-8.317999839782715 C-5.6020002365112305,-9.395999908447266 -4.728000164031982,-10.270999908447266 -3.6500000953674316,-10.270999908447266z"></path></g><g opacity="1" transform="matrix(1,0,0,1,0,0)"><path stroke-linecap="round" stroke-linejoin="round" fill-opacity="0" stroke="rgb(0,0,0)" stroke-opacity="1" stroke-width="1" d=" M16.20400047302246,22.739999771118164 C16.20400047302246,22.739999771118164 5,22.739999771118164 5,22.739999771118164"></path></g><g opacity="1" transform="matrix(1,0,0,1,0,0)"><path stroke-linecap="round" stroke-linejoin="round" fill-opacity="0" stroke="rgb(0,0,0)" stroke-opacity="1" stroke-width="1" d=" M11.338000297546387,7.822000026702881 C11.338000297546387,7.822000026702881 9.866999626159668,7.822000026702881 9.866999626159668,7.822000026702881"></path></g></g><g transform="matrix(0.5805627107620239,-0.01789597049355507,0.01789597049355507,0.5805627107620239,38.37559509277344,26.275489807128906)" opacity="1" style="display: none;"><g opacity="1" transform="matrix(1,0,0,1,9.013999938964844,9.006999969482422)"><path stroke-linecap="round" stroke-linejoin="round" fill-opacity="0" stroke="rgb(0,0,0)" stroke-opacity="1" stroke-width="1" d=" M-4.006999969482422,4.006999969482422 C-4.006999969482422,4.006999969482422 4.006999969482422,-4.006999969482422 4.006999969482422,-4.006999969482422"></path></g><g opacity="1" transform="matrix(1,0,0,1,11.638999938964844,6.381999969482422)"><path stroke-linecap="round" stroke-linejoin="round" fill-opacity="0" stroke="rgb(0,0,0)" stroke-opacity="1" stroke-width="1" d=" M-1.3819999694824219,-1.3819999694824219 C-1.3819999694824219,-1.3819999694824219 1.3819999694824219,-1.3819999694824219 1.3819999694824219,-1.3819999694824219 C1.3819999694824219,-1.3819999694824219 1.3819999694824219,1.3819999694824219 1.3819999694824219,1.3819999694824219"></path></g><g opacity="1" transform="matrix(1,0,0,1,6.38100004196167,11.638999938964844)"><path stroke-linecap="round" stroke-linejoin="round" fill-opacity="0" stroke="rgb(0,0,0)" stroke-opacity="1" stroke-width="1" d=" M1.3819999694824219,1.3819999694824219 C1.3819999694824219,1.3819999694824219 -1.3819999694824219,1.3819999694824219 -1.3819999694824219,1.3819999694824219 C-1.3819999694824219,1.3819999694824219 -1.3819999694824219,-1.3819999694824219 -1.3819999694824219,-1.3819999694824219"></path></g></g></g></svg>