<svg id="Layer_1" data-name="Layer 1" xmlns="http://www.w3.org/2000/svg" viewBox="0 0 660.88 81.94"><title>Tailwind CSS logo - Brandlogos.net</title><path d="M87.7,384q-27.31,0-34.14,27.31,10.24-13.66,23.9-10.24c5.19,1.3,8.91,5.07,13,9.24,6.69,6.8,14.44,14.66,31.37,14.66q27.31,0,34.14-27.31-10.24,13.66-23.9,10.24c-5.19-1.3-8.91-5.07-13-9.24C112.37,391.86,104.63,384,87.7,384Zm34.14-41q-27.31,0-34.14,27.31,10.24-13.66,23.9-10.24c5.19,1.3,8.91,5.07,13,9.24C131.31,376.14,139.06,384,156,384q27.31,0,34.14-27.31-10.24,13.66-23.9,10.24c-5.19-1.3-8.91-5.07-13-9.24C146.51,350.9,138.77,343,121.84,343Z" transform="translate(-53.56 -343.03)" style="fill:#38bdf8;fill-rule:evenodd"/><path d="M688.59,380.82c0,8.74,25.85,3.46,25.85,21.24,0,9.61-8.36,14.8-18.74,14.8-9.61,0-16.53-4.32-19.6-11.24l8.94-5.19c1.54,4.32,5.38,6.92,10.67,6.92,4.61,0,8.17-1.54,8.17-5.38,0-8.55-25.85-3.75-25.85-20.95,0-9,7.78-14.7,17.59-14.7,7.88,0,14.41,3.65,17.78,10l-8.74,4.9c-1.73-3.75-5.09-5.48-9-5.48-3.75,0-7,1.63-7,5.09Zm-44.3,0c0,8.74,25.85,3.46,25.85,21.24,0,9.61-8.36,14.8-18.74,14.8-9.61,0-16.53-4.32-19.6-11.24l8.94-5.19c1.54,4.32,5.38,6.92,10.67,6.92,4.61,0,8.17-1.54,8.17-5.38,0-8.55-25.85-3.75-25.85-20.95,0-9,7.78-14.7,17.59-14.7,7.88,0,14.41,3.65,17.78,10l-8.74,4.9c-1.73-3.75-5.09-5.48-9-5.48-3.75,0-7,1.63-7,5.09Zm-38.73,36a24.85,24.85,0,0,1-25.37-25.27c0-14.32,10.86-25.27,25.37-25.27,9.42,0,17.59,4.9,21.43,12.4l-8.94,5.19c-2.11-4.52-6.82-7.4-12.59-7.4a15.09,15.09,0,0,0,0,30.17,14.1,14.1,0,0,0,12.78-7.4l8.94,5.09a24.16,24.16,0,0,1-21.62,12.49ZM545.21,407c8.65,0,15.18-6.44,15.18-15.38s-6.53-15.38-15.18-15.38S530,382.65,530,391.59,536.56,407,545.21,407Zm15.18-58.62h10.38v67.27H560.39v-6.92c-3.65,5.09-9.32,8.17-16.82,8.17-13.07,0-23.93-11.05-23.93-25.27s10.86-25.27,23.93-25.27c7.5,0,13.17,3.08,16.82,8.07Zm-67.65,18c10.76,0,18.45,7.3,18.45,19.8v29.5H500.81V387.17c0-7.3-4.23-11.15-10.76-11.15-6.82,0-12.2,4-12.2,13.84v25.75H467.47v-48h10.38v6.15C481,368.72,486.21,366.31,492.74,366.31Zm-47.66,49.3v-48h10.38v48Zm5.19-55.26a6.71,6.71,0,0,1-6.63-6.63,6.63,6.63,0,0,1,13.26,0,6.71,6.71,0,0,1-6.63,6.63Zm-23.83,7.21h11l-15.09,48H412.12l-10-32.38L392,415.61H381.85l-15.09-48h11L387,400.72l10.09-33.15H407l10,33.15Zm-77.74,48V345.46h10.38v70.15Zm-22.39,0v-48h10.38v48Zm5.19-55.26a6.71,6.71,0,0,1-6.63-6.63,6.63,6.63,0,0,1,13.26,0A6.71,6.71,0,0,1,331.49,360.36ZM288.63,407c8.65,0,15.18-6.44,15.18-15.38s-6.53-15.38-15.18-15.38-15.18,6.44-15.18,15.38S280,407,288.63,407Zm15.18-39.4h10.38v48H303.81v-6.92c-3.65,5.09-9.32,8.17-16.82,8.17-13.07,0-23.93-11.05-23.93-25.27s10.86-25.27,23.93-25.27c7.5,0,13.17,3.08,16.82,8.07v-6.82Zm-45.42,10H246.47v23.06c0,6.15,4,6.05,11.92,5.67v9.32c-16,1.92-22.29-2.5-22.29-15V377.56h-8.84v-10h8.84V354.65l10.38-3.08v16h11.92v10Z" transform="translate(-53.56 -343.03)" style="fill:#0f172a;fill-rule:evenodd"/></svg>