<svg xmlns="http://www.w3.org/2000/svg" viewBox="0 0 318.33 318.33"><title>WordPress Logotype logo - Brandlogos.net</title><path d="M384,234.38a148.87,148.87,0,0,1,83.65,25.55,150.08,150.08,0,0,1,54.22,65.84,149.41,149.41,0,0,1-13.79,141.88,150.08,150.08,0,0,1-65.84,54.22,149.41,149.41,0,0,1-141.88-13.79,150.08,150.08,0,0,1-54.22-65.84,149.41,149.41,0,0,1,13.79-141.88,150.08,150.08,0,0,1,65.84-54.22A148.67,148.67,0,0,1,384,234.38m0-9.55A159.17,159.17,0,1,0,543.17,384,159.17,159.17,0,0,0,384,224.83Z" transform="translate(-224.83 -224.83)" style="fill:#32373c"/><path d="M251.36,384a132.65,132.65,0,0,0,74.76,119.37L262.85,330A132.12,132.12,0,0,0,251.36,384Zm222.18-6.69c0-16.4-5.89-27.75-10.93-36.58-6.72-10.93-13-20.18-13-31.11,0-12.19,9.24-23.54,22.27-23.54.59,0,1.15.07,1.72.11a132.61,132.61,0,0,0-200.39,25c3.11.1,6,.16,8.54.16,13.87,0,35.35-1.69,35.35-1.69,7.15-.42,8,10.09.85,10.93,0,0-7.19.84-15.18,1.26L351,465.48l29-87.05L359.4,321.81c-7.15-.42-13.91-1.26-13.91-1.26-7.15-.42-6.31-11.35.84-10.93,0,0,21.9,1.69,34.93,1.69,13.87,0,35.35-1.69,35.35-1.69,7.15-.42,8,10.09.84,10.93,0,0-7.19.84-15.18,1.26l47.93,142.58L463.9,421C470,402.08,473.54,388.66,473.54,377.31ZM386.33,395.6l-39.8,115.64A132.69,132.69,0,0,0,428,509.12a12.1,12.1,0,0,1-1-1.83ZM500.4,320.36a101.88,101.88,0,0,1,.89,13.64c0,13.45-2.52,28.58-10.09,47.51L450.69,498.64A132.66,132.66,0,0,0,500.4,320.36Z" transform="translate(-224.83 -224.83)" style="fill:#32373c"/></svg>